<mxfile host="65bd71144e">
    <diagram id="LbE9PppjevmL19wuLY-l" name="第 1 页">
        <mxGraphModel dx="689" dy="627" grid="1" gridSize="10" guides="1" tooltips="1" connect="1" arrows="1" fold="1" page="1" pageScale="1" pageWidth="1200" pageHeight="1920" background="#FFFFFF" math="0" shadow="0">
            <root>
                <mxCell id="0"/>
                <mxCell id="1" parent="0"/>
                <mxCell id="33" style="edgeStyle=none;html=1;exitX=0.5;exitY=1;exitDx=0;exitDy=0;entryX=0.5;entryY=0;entryDx=0;entryDy=0;strokeColor=#000000;strokeWidth=3;" parent="1" source="10" target="31" edge="1">
                    <mxGeometry relative="1" as="geometry"/>
                </mxCell>
                <mxCell id="10" value="process_read" style="whiteSpace=wrap;html=1;strokeColor=#000000;strokeWidth=3;" parent="1" vertex="1">
                    <mxGeometry x="530" y="80" width="120" height="60" as="geometry"/>
                </mxCell>
                <mxCell id="31" value="while循环条件:主状态机为解析消息体并且完整读取一行&lt;br&gt;或者&lt;br&gt;行状态为parse_line()为完整读取一行" style="whiteSpace=wrap;html=1;strokeColor=#000000;strokeWidth=3;" parent="1" vertex="1">
                    <mxGeometry x="530" y="180" width="120" height="140" as="geometry"/>
                </mxCell>
                <mxCell id="40" value="调用get_line()指向未被处理的字符" style="whiteSpace=wrap;html=1;strokeColor=#000000;strokeWidth=3;" vertex="1" parent="1">
                    <mxGeometry x="530" y="350" width="120" height="90" as="geometry"/>
                </mxCell>
                <mxCell id="45" style="edgeStyle=none;html=1;exitX=0.5;exitY=1;exitDx=0;exitDy=0;entryX=0.5;entryY=0;entryDx=0;entryDy=0;fontColor=#000000;strokeColor=#000000;strokeWidth=3;" edge="1" parent="1" source="42" target="43">
                    <mxGeometry relative="1" as="geometry"/>
                </mxCell>
                <mxCell id="47" style="edgeStyle=none;html=1;exitX=0.5;exitY=1;exitDx=0;exitDy=0;entryX=0.5;entryY=0;entryDx=0;entryDy=0;fontColor=#000000;strokeColor=#000000;strokeWidth=3;" edge="1" parent="1" source="42" target="46">
                    <mxGeometry relative="1" as="geometry"/>
                </mxCell>
                <mxCell id="54" style="edgeStyle=none;html=1;exitX=0.5;exitY=1;exitDx=0;exitDy=0;entryX=0.5;entryY=0;entryDx=0;entryDy=0;fontColor=#000000;strokeColor=#000000;strokeWidth=3;" edge="1" parent="1" source="42" target="53">
                    <mxGeometry relative="1" as="geometry"/>
                </mxCell>
                <mxCell id="42" value="主状态机的逻辑" style="rhombus;whiteSpace=wrap;html=1;" vertex="1" parent="1">
                    <mxGeometry x="530" y="490" width="120" height="80" as="geometry"/>
                </mxCell>
                <mxCell id="43" value="调用parse_request_line()" style="whiteSpace=wrap;html=1;" vertex="1" parent="1">
                    <mxGeometry x="380" y="650" width="120" height="60" as="geometry"/>
                </mxCell>
                <mxCell id="44" value="解析请求行" style="text;html=1;align=center;verticalAlign=middle;resizable=0;points=[];autosize=1;strokeColor=none;fillColor=none;fontColor=#000000;" vertex="1" parent="1">
                    <mxGeometry x="450" y="590" width="80" height="20" as="geometry"/>
                </mxCell>
                <mxCell id="46" value="" style="whiteSpace=wrap;html=1;" vertex="1" parent="1">
                    <mxGeometry x="580" y="660" width="120" height="60" as="geometry"/>
                </mxCell>
                <mxCell id="48" value="解析请求头" style="text;html=1;align=center;verticalAlign=middle;resizable=0;points=[];autosize=1;strokeColor=none;fillColor=none;fontColor=#000000;" vertex="1" parent="1">
                    <mxGeometry x="620" y="590" width="80" height="20" as="geometry"/>
                </mxCell>
                <mxCell id="50" style="edgeStyle=none;html=1;exitX=0.5;exitY=1;exitDx=0;exitDy=0;entryX=0.5;entryY=0;entryDx=0;entryDy=0;fontColor=#000000;strokeColor=#000000;strokeWidth=3;" edge="1" parent="1" target="51" source="42">
                    <mxGeometry relative="1" as="geometry">
                        <mxPoint x="770" y="580" as="sourcePoint"/>
                    </mxGeometry>
                </mxCell>
                <mxCell id="51" value="" style="whiteSpace=wrap;html=1;" vertex="1" parent="1">
                    <mxGeometry x="820" y="660" width="120" height="70" as="geometry"/>
                </mxCell>
                <mxCell id="52" value="解析消息体" style="text;html=1;align=center;verticalAlign=middle;resizable=0;points=[];autosize=1;strokeColor=none;fillColor=none;fontColor=#000000;" vertex="1" parent="1">
                    <mxGeometry x="740" y="640" width="80" height="20" as="geometry"/>
                </mxCell>
                <mxCell id="53" value="return INTERNAL_ERROR;&lt;br&gt;即服务器内部错误&amp;nbsp;" style="whiteSpace=wrap;html=1;" vertex="1" parent="1">
                    <mxGeometry x="980" y="660" width="120" height="70" as="geometry"/>
                </mxCell>
                <mxCell id="55" value="default" style="text;html=1;align=center;verticalAlign=middle;resizable=0;points=[];autosize=1;strokeColor=none;fillColor=none;fontColor=#000000;" vertex="1" parent="1">
                    <mxGeometry x="920" y="610" width="60" height="20" as="geometry"/>
                </mxCell>
            </root>
        </mxGraphModel>
    </diagram>
</mxfile>